<?xml version="1.0" encoding="utf-8"?>
<!-- Generator: Adobe Illustrator 16.0.0, SVG Export Plug-In . SVG Version: 6.00 Build 0)  -->
<!DOCTYPE svg PUBLIC "-//W3C//DTD SVG 1.0//EN" "http://www.w3.org/TR/2001/REC-SVG-20010904/DTD/svg10.dtd">
<svg version="1.0" id="Layer_1" xmlns="http://www.w3.org/2000/svg" xmlns:xlink="http://www.w3.org/1999/xlink" x="0px" y="0px"
	 width="100px" height="100px" viewBox="0 0 100 100" enable-background="new 0 0 100 100" xml:space="preserve">
<rect x="46.667" y="10" width="6.666" height="6.667" style="fill: white;"/>
<rect x="46.667" y="83.333" width="6.666" height="6.667" style="fill: white;"/>
<rect x="74.951" y="15.05" transform="matrix(0.707 0.7072 -0.7072 0.707 38.2919 -48.9993)" width="6.667" height="13.332" style="fill: white;"/>
<rect x="18.383" y="71.618" transform="matrix(0.7071 0.7071 -0.7071 0.7071 61.7155 7.5738)" width="6.665" height="13.332" style="fill: white;"/>
<rect x="18.383" y="15.05" transform="matrix(0.7074 -0.7068 0.7068 0.7074 -8.9944 21.7041)" width="6.668" height="13.331" style="fill: white;"/>
<rect x="74.952" y="71.619" transform="matrix(0.7071 -0.7071 0.7071 0.7071 -32.4267 78.2843)" width="6.665" height="13.332" style="fill: white;"/>
<rect x="10" y="46.666" width="6.667" height="6.668" style="fill: white;"/>
<rect x="83.333" y="46.666" width="6.667" height="6.668" style="fill: white;"/>
<path d="M50,23.333c-14.727,0-26.667,11.942-26.667,26.667c0,14.729,11.94,26.667,26.667,26.667
	c14.729,0,26.667-11.938,26.667-26.667C76.667,35.275,64.729,23.333,50,23.333z M53.333,69.7v-6.367l7.644-7.644
	c1.296-1.295,2.356-3.857,2.356-5.689v-3.334H57.5v-10h-5v10h-5v-10h-5v10h-5.833V50c0,1.832,1.061,4.395,2.356,5.689l7.644,7.644
	V69.7C37.214,68.112,30,59.909,30,50c0-11.045,8.955-20,20-20c11.048,0,20,8.955,20,20C70,59.909,62.79,68.112,53.333,69.7z"  style="fill: white;"/>
</svg>
